<svg xmlns="http://www.w3.org/2000/svg" viewBox="0 0 512 512">
  <defs>
    <linearGradient id="g" x1="0" x2="1" y1="0" y2="1">
      <stop offset="0" stop-color="#4f46e5"/>
      <stop offset="1" stop-color="#6366f1"/>
    </linearGradient>
  </defs>
  <rect width="512" height="512" rx="112" fill="url(#g)"/>
  <path fill="#ffffff" opacity="0.95" d="M148 176c0-22.1 17.9-40 40-40h136c22.1 0 40 17.9 40 40v160c0 22.1-17.9 40-40 40H188c-22.1 0-40-17.9-40-40V176zm52 8a16 16 0 0 0 0 32h112a16 16 0 0 0 0-32H200zm0 64a16 16 0 0 0 0 32h112a16 16 0 0 0 0-32H200zm0 64a16 16 0 0 0 0 32h72a16 16 0 0 0 0-32H200z"/>
</svg>
